<mxfile host="app.diagrams.net" modified="2024-03-27T09:50:38.354Z" agent="Mozilla/5.0 (Windows NT 10.0; Win64; x64) AppleWebKit/537.36 (KHTML, like Gecko) Chrome/122.0.0.0 Safari/537.36" etag="8TU7QkkSjQ1z_BpKJlPh" version="23.0.1" type="github">
  <diagram name="Sida-1" id="nAHrq5jM7Jp51wS1tqFK">
    <mxGraphModel dx="617" dy="2334" grid="0" gridSize="10" guides="1" tooltips="1" connect="1" arrows="1" fold="1" page="0" pageScale="1" pageWidth="827" pageHeight="1169" math="0" shadow="0">
      <root>
        <mxCell id="0" />
        <mxCell id="1" parent="0" />
        <mxCell id="Ha0F8lZDVujty4aZxUYc-325" value="" style="edgeStyle=none;curved=1;rounded=0;orthogonalLoop=1;jettySize=auto;html=1;fontSize=12;startSize=8;endSize=8;" edge="1" parent="1" source="Ha0F8lZDVujty4aZxUYc-323" target="Ha0F8lZDVujty4aZxUYc-324">
          <mxGeometry relative="1" as="geometry" />
        </mxCell>
        <mxCell id="Ha0F8lZDVujty4aZxUYc-323" value="Start" style="ellipse;whiteSpace=wrap;html=1;fontSize=16;" vertex="1" parent="1">
          <mxGeometry x="920" y="-1200" width="120" height="80" as="geometry" />
        </mxCell>
        <mxCell id="Ha0F8lZDVujty4aZxUYc-327" value="" style="edgeStyle=none;curved=1;rounded=0;orthogonalLoop=1;jettySize=auto;html=1;fontSize=12;startSize=8;endSize=8;" edge="1" parent="1" source="Ha0F8lZDVujty4aZxUYc-324" target="Ha0F8lZDVujty4aZxUYc-326">
          <mxGeometry relative="1" as="geometry" />
        </mxCell>
        <mxCell id="Ha0F8lZDVujty4aZxUYc-324" value="Skriv ut menyn" style="whiteSpace=wrap;html=1;fontSize=16;" vertex="1" parent="1">
          <mxGeometry x="920" y="-1069" width="120" height="60" as="geometry" />
        </mxCell>
        <mxCell id="Ha0F8lZDVujty4aZxUYc-329" value="" style="edgeStyle=none;curved=1;rounded=0;orthogonalLoop=1;jettySize=auto;html=1;fontSize=12;startSize=8;endSize=8;" edge="1" parent="1" source="Ha0F8lZDVujty4aZxUYc-326" target="Ha0F8lZDVujty4aZxUYc-328">
          <mxGeometry relative="1" as="geometry" />
        </mxCell>
        <mxCell id="Ha0F8lZDVujty4aZxUYc-326" value="Skapa variabel val = val från användaren" style="whiteSpace=wrap;html=1;fontSize=16;" vertex="1" parent="1">
          <mxGeometry x="920" y="-951" width="120" height="60" as="geometry" />
        </mxCell>
        <mxCell id="Ha0F8lZDVujty4aZxUYc-330" style="edgeStyle=none;curved=1;rounded=0;orthogonalLoop=1;jettySize=auto;html=1;exitX=0;exitY=0.5;exitDx=0;exitDy=0;fontSize=12;startSize=8;endSize=8;" edge="1" parent="1" source="Ha0F8lZDVujty4aZxUYc-328" target="Ha0F8lZDVujty4aZxUYc-324">
          <mxGeometry relative="1" as="geometry">
            <Array as="points">
              <mxPoint x="600" y="-909" />
            </Array>
          </mxGeometry>
        </mxCell>
        <mxCell id="Ha0F8lZDVujty4aZxUYc-332" value="" style="edgeStyle=none;curved=1;rounded=0;orthogonalLoop=1;jettySize=auto;html=1;fontSize=12;startSize=8;endSize=8;" edge="1" parent="1" source="Ha0F8lZDVujty4aZxUYc-328" target="Ha0F8lZDVujty4aZxUYc-331">
          <mxGeometry relative="1" as="geometry" />
        </mxCell>
        <mxCell id="Ha0F8lZDVujty4aZxUYc-328" value="Val =! 1/2/3/4" style="rhombus;whiteSpace=wrap;html=1;fontSize=16;" vertex="1" parent="1">
          <mxGeometry x="940" y="-846" width="80" height="80" as="geometry" />
        </mxCell>
        <mxCell id="Ha0F8lZDVujty4aZxUYc-334" value="" style="edgeStyle=none;curved=1;rounded=0;orthogonalLoop=1;jettySize=auto;html=1;fontSize=12;startSize=8;endSize=8;" edge="1" parent="1" source="Ha0F8lZDVujty4aZxUYc-331" target="Ha0F8lZDVujty4aZxUYc-333">
          <mxGeometry relative="1" as="geometry" />
        </mxCell>
        <mxCell id="Ha0F8lZDVujty4aZxUYc-336" value="" style="edgeStyle=none;curved=1;rounded=0;orthogonalLoop=1;jettySize=auto;html=1;fontSize=12;startSize=8;endSize=8;" edge="1" parent="1" source="Ha0F8lZDVujty4aZxUYc-331" target="Ha0F8lZDVujty4aZxUYc-335">
          <mxGeometry relative="1" as="geometry" />
        </mxCell>
        <mxCell id="Ha0F8lZDVujty4aZxUYc-331" value="Val = 1" style="rhombus;whiteSpace=wrap;html=1;fontSize=16;" vertex="1" parent="1">
          <mxGeometry x="940" y="-704" width="80" height="80" as="geometry" />
        </mxCell>
        <mxCell id="Ha0F8lZDVujty4aZxUYc-349" style="edgeStyle=none;curved=1;rounded=0;orthogonalLoop=1;jettySize=auto;html=1;exitX=1;exitY=0.5;exitDx=0;exitDy=0;entryX=1;entryY=0.5;entryDx=0;entryDy=0;fontSize=12;startSize=8;endSize=8;" edge="1" parent="1" source="Ha0F8lZDVujty4aZxUYc-333" target="Ha0F8lZDVujty4aZxUYc-324">
          <mxGeometry relative="1" as="geometry">
            <Array as="points">
              <mxPoint x="1387" y="-970" />
            </Array>
          </mxGeometry>
        </mxCell>
        <mxCell id="Ha0F8lZDVujty4aZxUYc-333" value="Metod boka_plats()" style="whiteSpace=wrap;html=1;fontSize=16;" vertex="1" parent="1">
          <mxGeometry x="1080" y="-692" width="120" height="60" as="geometry" />
        </mxCell>
        <mxCell id="Ha0F8lZDVujty4aZxUYc-338" value="" style="edgeStyle=none;curved=1;rounded=0;orthogonalLoop=1;jettySize=auto;html=1;fontSize=12;startSize=8;endSize=8;" edge="1" parent="1" source="Ha0F8lZDVujty4aZxUYc-335" target="Ha0F8lZDVujty4aZxUYc-337">
          <mxGeometry relative="1" as="geometry" />
        </mxCell>
        <mxCell id="Ha0F8lZDVujty4aZxUYc-340" value="" style="edgeStyle=none;curved=1;rounded=0;orthogonalLoop=1;jettySize=auto;html=1;fontSize=12;startSize=8;endSize=8;" edge="1" parent="1" source="Ha0F8lZDVujty4aZxUYc-335" target="Ha0F8lZDVujty4aZxUYc-339">
          <mxGeometry relative="1" as="geometry" />
        </mxCell>
        <mxCell id="Ha0F8lZDVujty4aZxUYc-335" value="Val = 2" style="rhombus;whiteSpace=wrap;html=1;fontSize=16;" vertex="1" parent="1">
          <mxGeometry x="940" y="-588" width="80" height="80" as="geometry" />
        </mxCell>
        <mxCell id="Ha0F8lZDVujty4aZxUYc-350" style="edgeStyle=none;curved=1;rounded=0;orthogonalLoop=1;jettySize=auto;html=1;exitX=1;exitY=0.5;exitDx=0;exitDy=0;fontSize=12;startSize=8;endSize=8;entryX=1;entryY=0.5;entryDx=0;entryDy=0;" edge="1" parent="1" source="Ha0F8lZDVujty4aZxUYc-337" target="Ha0F8lZDVujty4aZxUYc-324">
          <mxGeometry relative="1" as="geometry">
            <mxPoint x="1170.235294117647" y="-966.9411764705883" as="targetPoint" />
            <Array as="points">
              <mxPoint x="1471" y="-942" />
            </Array>
          </mxGeometry>
        </mxCell>
        <mxCell id="Ha0F8lZDVujty4aZxUYc-337" value="Metod hitta_bokning()" style="whiteSpace=wrap;html=1;fontSize=16;" vertex="1" parent="1">
          <mxGeometry x="1080" y="-578" width="120" height="60" as="geometry" />
        </mxCell>
        <mxCell id="Ha0F8lZDVujty4aZxUYc-342" value="" style="edgeStyle=none;curved=1;rounded=0;orthogonalLoop=1;jettySize=auto;html=1;fontSize=12;startSize=8;endSize=8;" edge="1" parent="1" source="Ha0F8lZDVujty4aZxUYc-339" target="Ha0F8lZDVujty4aZxUYc-341">
          <mxGeometry relative="1" as="geometry" />
        </mxCell>
        <mxCell id="Ha0F8lZDVujty4aZxUYc-344" value="" style="edgeStyle=none;curved=1;rounded=0;orthogonalLoop=1;jettySize=auto;html=1;fontSize=12;startSize=8;endSize=8;" edge="1" parent="1" source="Ha0F8lZDVujty4aZxUYc-339" target="Ha0F8lZDVujty4aZxUYc-343">
          <mxGeometry relative="1" as="geometry" />
        </mxCell>
        <mxCell id="Ha0F8lZDVujty4aZxUYc-339" value="Val = 3" style="rhombus;whiteSpace=wrap;html=1;fontSize=16;" vertex="1" parent="1">
          <mxGeometry x="940" y="-454" width="80" height="80" as="geometry" />
        </mxCell>
        <mxCell id="Ha0F8lZDVujty4aZxUYc-351" style="edgeStyle=none;curved=1;rounded=0;orthogonalLoop=1;jettySize=auto;html=1;exitX=1;exitY=0.5;exitDx=0;exitDy=0;fontSize=12;startSize=8;endSize=8;" edge="1" parent="1" source="Ha0F8lZDVujty4aZxUYc-341">
          <mxGeometry relative="1" as="geometry">
            <mxPoint x="1038.4705882352941" y="-1045.764705882353" as="targetPoint" />
            <Array as="points">
              <mxPoint x="1555" y="-895" />
            </Array>
          </mxGeometry>
        </mxCell>
        <mxCell id="Ha0F8lZDVujty4aZxUYc-341" value="Metod beräkna_vinst" style="whiteSpace=wrap;html=1;fontSize=16;" vertex="1" parent="1">
          <mxGeometry x="1080" y="-444" width="120" height="60" as="geometry" />
        </mxCell>
        <mxCell id="Ha0F8lZDVujty4aZxUYc-348" value="" style="edgeStyle=none;curved=1;rounded=0;orthogonalLoop=1;jettySize=auto;html=1;fontSize=12;startSize=8;endSize=8;" edge="1" parent="1" source="Ha0F8lZDVujty4aZxUYc-343" target="Ha0F8lZDVujty4aZxUYc-347">
          <mxGeometry relative="1" as="geometry" />
        </mxCell>
        <mxCell id="Ha0F8lZDVujty4aZxUYc-343" value="Val = 4" style="rhombus;whiteSpace=wrap;html=1;fontSize=16;" vertex="1" parent="1">
          <mxGeometry x="940" y="-314" width="80" height="80" as="geometry" />
        </mxCell>
        <mxCell id="Ha0F8lZDVujty4aZxUYc-347" value="Slut" style="ellipse;whiteSpace=wrap;html=1;fontSize=16;" vertex="1" parent="1">
          <mxGeometry x="1093" y="-314" width="80" height="80" as="geometry" />
        </mxCell>
      </root>
    </mxGraphModel>
  </diagram>
</mxfile>
